<?xml version="1.0" encoding="UTF-8"?>
<svg width="95px" height="96px" viewBox="0 0 95 96" version="1.1" xmlns="http://www.w3.org/2000/svg" xmlns:xlink="http://www.w3.org/1999/xlink">
    <title>Fill 4</title>
    <g id="Page-1" stroke="none" stroke-width="1" fill="none" fill-rule="evenodd">
        <g id="New-Player-Page" transform="translate(-271.000000, -2646.000000)" fill="#231F20">
            <g id="Group-14" transform="translate(0.500000, 2400.925000)">
                <g id="Group-20" transform="translate(264.891250, 120.583342)">
                    <g id="Group-28" transform="translate(0.000000, 121.800000)">
                        <g id="Group-6" transform="translate(0.000000, 0.000234)">
                            <path d="M72.1045477,50.0528659 C67.2902717,53.8100184 65.9441365,53.4046261 61.9212484,58.2305401 C66.2176309,55.9533605 70.3646583,54.6130443 75.054795,53.6761808 C73.9802144,52.6016002 73.0414112,51.2632238 72.1045477,50.0528659 L72.1045477,50.0528659 Z M61.6496938,35.1813696 L61.6496938,46.7011057 C65.5368046,44.4258657 67.821743,41.6094561 67.6859656,37.8581226 C65.4010273,36.7854817 64.4641637,36.6555234 61.6496938,35.1813696 L61.6496938,35.1813696 Z M50.2560366,35.7167202 C49.1950338,35.3093882 47.8508383,35.1813696 46.3689258,35.1813696 L46.3689258,37.185055 C46.3689258,38.1238582 49.5926674,40.9441472 50.2560366,41.6094561 L50.2560366,35.7167202 Z M38.6044026,41.0741055 C36.7306755,41.8829504 32.9774024,42.1467463 32.9774024,44.4258657 C35.656095,44.0243527 39.5451455,45.9000195 42.0861211,45.7642422 C40.6061483,44.0243527 39.4093682,42.5482593 38.6044026,41.0741055 L38.6044026,41.0741055 Z M44.4932591,60.6415575 C44.4932591,56.7544467 39.6673451,52.4658229 35.3845404,52.4658229 C33.3730963,52.4658229 30.422849,53.1388905 28.411405,54.213471 C33.9162056,53.8100184 39.6673451,57.6932499 44.4932591,62.3892056 L44.4932591,60.6415575 Z M92.8881766,63.4579671 C91.6797584,63.4579671 89.39482,62.9206768 88.4579565,61.9818736 C87.6568703,61.1788477 86.9896217,60.3777615 86.5822897,59.4389583 C84.5708457,59.303181 80.8175725,59.1674037 80.2880409,59.1674037 C76.1274358,59.1674037 65.5368046,63.0564542 65.1430503,63.7275821 C62.9958289,66.2704974 61.9212484,76.3238383 61.9212484,78.3372221 C61.9212484,82.6239062 62.4643577,84.7730672 67.6859656,86.3771793 C69.1659385,86.7786923 71.7088538,87.7155558 72.1045477,87.7155558 C72.5118797,87.7155558 75.054795,87.5875372 75.4601873,87.5875372 C76.5347678,87.5875372 81.7563757,88.1228878 81.3606818,90.2642901 C79.880709,90.8015804 77.6093483,89.5931622 74.7948784,91.067316 C75.4601873,91.6046063 77.473571,92.4115115 78.5462119,92.9429828 C78.5462119,94.5529139 74.6571614,94.5529139 73.9802144,94.5529139 C71.4372991,94.5529139 68.8943838,93.480273 67.9555806,93.480273 L66.2176309,93.480273 C65.8083592,94.6906309 65.8083592,96.0290073 65.4010273,97.5031611 C60.8466679,97.1016482 58.7130242,92.2776739 56.1565312,92.2776739 C54.6881964,92.2776739 52.4051977,97.9046741 52.4051977,98.306187 C49.5926674,96.8320332 48.7877019,92.8130245 48.2445926,91.3388707 C46.1109489,91.7403836 44.3691198,95.4917171 43.2945393,96.9678106 L42.6175924,96.9678106 C40.7419256,95.0902041 41.5565896,91.3388707 40.6061483,91.3388707 C38.3347876,90.6658031 36.1856266,90.0004942 32.8416251,90.0004942 C32.4342931,90.0004942 29.4840458,90.4000674 27.4726017,90.8015804 L23.7212683,90.5300257 C24.5242942,89.7289395 31.4954899,84.7730672 35.3845404,84.7730672 C35.7918723,84.7730672 37.1244298,85.0388028 37.5337014,85.0388028 C38.470565,85.0388028 42.6175924,83.426932 42.8872073,82.4900685 C43.2945393,81.82282 43.2945393,78.4710597 43.2945393,78.0695468 C43.2945393,70.5591211 40.7419256,63.9933177 27.7441564,61.8519153 C26.1400443,67.3450779 20.9067983,69.4922993 15.6851904,69.4922993 C10.723499,69.4922993 6.03336236,61.716138 6.03336236,58.5001551 C6.03336236,55.9533605 6.56483359,53.1388905 10.1803898,50.3244206 C7.50169713,47.6399089 6.83638824,45.7642422 6.83638824,43.2213269 C6.83638824,39.4680537 8.98360963,35.0436526 14.3409949,34.3725247 C14.2032779,32.36496 14.0694402,30.083901 17.1554648,28.4778492 C16.2186013,27.5409857 15.6851904,24.7265157 15.6851904,23.2504222 C15.6851904,17.4876447 20.1037724,12.9255266 26.004267,12.9255266 C28.1514884,12.9255266 31.3616522,13.4628169 33.9162056,16.2772868 C36.9886525,6.22394586 43.2945393,3.00990264 50.6633686,3.00990264 C59.5141104,3.00990264 63.9326925,10.5145093 64.3400245,10.5145093 C64.7357184,10.5145093 65.9441365,9.30997046 70.6342732,9.30997046 C77.066239,9.30997046 82.6932392,14.0001071 84.7046833,22.0420041 C84.8404606,22.443517 86.5822897,22.3135587 87.6568703,22.8430903 C89.6683143,23.9176708 90.6051779,26.4664051 90.6051779,27.9405589 C90.6051779,28.6078075 90.0756463,29.5466107 89.5305973,30.4834742 C95.2953146,33.7052762 98.1097845,38.1238582 98.1097845,43.8885754 C98.1097845,46.1715741 97.7140906,47.5099506 96.2321781,50.5901562 C98.7770331,52.06431 99.7138966,54.3414897 99.7138966,56.488711 C99.7138966,60.1062069 96.5056724,63.4579671 92.8881766,63.4579671 L92.8881766,63.4579671 Z" id="Fill-4"></path>
                        </g>
                    </g>
                </g>
            </g>
        </g>
    </g>
</svg>