<?xml version="1.0" encoding="UTF-8"?>
<svg width="98px" height="110px" viewBox="0 0 98 110" version="1.1" xmlns="http://www.w3.org/2000/svg" xmlns:xlink="http://www.w3.org/1999/xlink">
    <title>Fill 4</title>
    <g id="Page-1" stroke="none" stroke-width="1" fill="none" fill-rule="evenodd">
        <g id="New-Player-Page" transform="translate(-360.000000, -2820.000000)" fill="#231F20">
            <g id="Group-14" transform="translate(0.500000, 2400.925000)">
                <g id="Group-20" transform="translate(264.891250, 120.583342)">
                    <g id="Group-6" transform="translate(75.051156, 291.114484)">
                        <path d="M64.8124259,41.6546236 C57.5852867,41.6546236 58.5489053,33.7757617 50.3418544,30.3984415 C53.5562439,27.6658614 58.5489053,34.0923127 61.5980365,34.0923127 C64.1769963,34.0923127 64.1769963,29.5907709 68.3526767,29.5907709 C72.0535306,29.5907709 73.6711995,32.6492124 73.6711995,35.2188619 C73.6711995,39.7204037 67.2261275,41.6546236 64.8124259,41.6546236 M38.287312,24.7703505 C35.0589571,26.2134508 33.13172,31.0431815 31.681637,33.612831 C30.8809491,32.4862817 30.7180184,28.9483585 30.2431919,26.8581907 C28.1413862,26.8581907 22.8391565,31.5226632 20.7489887,32.8121431 C22.0384686,25.5710384 31.0438798,14.477787 38.4502427,14.477787 C42.3000618,14.477787 45.6750544,16.5656272 45.6750544,20.4224291 C45.6750544,25.0892291 39.7234296,24.2885412 38.287312,24.7703505 M87.652979,100.521476 C85.3998805,100.521476 72.5423226,101.645698 72.5423226,105.504827 C72.5423226,106.79198 74.7954211,108.400338 75.596109,108.400338 C76.2315386,108.400338 86.2145338,108.88913 92.9691741,108.88913 C80.0953232,116.605062 57.7482174,116.442398 46.1638464,116.442398 C29.9196581,115.960322 20.1135591,99.5578578 20.1135591,87.1774541 C20.1135591,71.7362813 32.0051707,59.3465673 47.2927232,59.3465673 C53.5562439,59.3465673 57.0964947,61.5973382 59.8360576,61.5973382 C70.929309,61.5973382 80.4235121,51.786584 83.0001444,51.786584 C82.185491,59.0276887 81.2242,68.8407705 71.7299969,74.4688615 C67.0631968,77.2014417 64.8124259,79.7710912 64.8124259,82.3477234 C64.8124259,86.6863345 71.418101,87.3310745 72.7075809,87.3310745 C78.6452402,87.3310745 84.9273815,77.5203203 84.4385895,72.860503 C83.963763,69.1573215 84.4385895,64.9746583 85.0879846,61.2784596 C85.5628111,59.3465673 88.3023741,54.3608886 91.0442646,53.0737363 C91.0442646,56.1321778 88.9378037,59.1836366 88.9378037,62.8868181 C88.9378037,64.6557797 90.3902143,67.8701692 90.8790063,68.3519784 C94.731153,67.0694813 97.4707159,58.5458794 98.2690762,52.1124453 C89.4265957,51.630636 77.3580879,41.335745 79.4598936,31.1991294 C79.9347201,31.6879214 84.4385895,39.7204037 86.5241021,39.7204037 C90.8790063,39.7204037 87.9765127,21.3930304 77.8468799,21.3930304 C71.8929275,21.3930304 71.2551703,26.2134508 62.8875164,26.2134508 C59.6731269,26.2134508 55.0063269,24.1256105 52.9208142,23.3202675 C53.7191745,22.0307876 68.5156074,24.6074198 68.5156074,18.6534674 C68.5156074,13.8330471 50.3418544,11.7358965 47.1274649,11.2540872 C44.7137634,10.7746055 41.8252353,11.1004669 39.4115337,10.6116749 C39.8863602,10.1298656 49.7064248,8.04202535 58.7095083,8.04202535 C84.9273815,8.04202535 100.685105,21.2300997 107.274487,45.1948744 C112.590683,40.8539357 104.225356,24.4444892 103.424668,21.711909 C111.941287,32.6492124 116.60576,42.4622942 116.60576,53.3995977 C116.60576,71.41042 103.899495,76.0748924 94.8940837,89.2652944 C102.610015,87.1774541 110.342239,85.2432343 117.569378,77.3643723 C117.569378,79.7710912 116.60576,81.7029835 115.805072,83.6372033 C110.342239,96.8252777 100.356916,100.521476 87.652979,100.521476" id="Fill-4"></path>
                    </g>
                </g>
            </g>
        </g>
    </g>
</svg>