<?xml version="1.0" encoding="UTF-8"?>
<svg width="102px" height="102px" viewBox="0 0 102 102" version="1.1" xmlns="http://www.w3.org/2000/svg" xmlns:xlink="http://www.w3.org/1999/xlink">
    <title>Fill 4</title>
    <g id="Page-1" stroke="none" stroke-width="1" fill="none" fill-rule="evenodd">
        <g id="New-Player-Page" transform="translate(-429.000000, -2523.000000)" fill="#231F20">
            <g id="Group-14" transform="translate(0.500000, 2400.925000)">
                <g id="Group-20" transform="translate(264.891250, 120.583342)">
                    <g id="Group-18" transform="translate(162.324531, 0.000000)">
                        <g id="Group-6" transform="translate(0.000000, 0.001632)">
                            <path d="M52.1344212,71.0363542 C41.4217095,71.0363542 32.9783935,62.3214866 32.9783935,52.1402402 C32.9783935,41.9512351 41.8154593,33.2383072 52.1344212,33.2383072 C62.465021,33.2383072 71.3020868,41.9512351 71.3020868,52.1402402 C71.3020868,63.7975636 62.0576935,71.0363542 52.1344212,71.0363542 M52.1344212,30.9592132 C40.7408907,30.9592132 30.6954202,40.4770977 30.6954202,52.1402402 C30.6954202,62.1876504 39.6682618,73.1777327 52.1344212,73.1777327 C62.8587708,73.1777327 73.3135085,65.4074768 73.3135085,52.1402402 C73.3135085,41.5497267 64.3406669,30.9592132 52.1344212,30.9592132 M89.6686751,54.015886 C84.0397978,54.015886 89.1372098,60.5816165 81.4969108,60.5816165 C80.0169544,60.5816165 77.745619,60.0443322 75.460706,59.5089875 C74.3880771,61.1189008 72.917819,62.9945467 72.917819,64.4706237 C72.917819,67.2831227 78.0035931,69.9617856 78.6824721,69.9617856 C83.4966946,69.9617856 84.9785906,66.074718 84.9785906,75.1891544 C84.9785906,76.5294557 83.7682462,86.716521 82.2999278,92.8826826 C81.8926003,91.4066056 79.0781617,79.2119978 74.9311804,79.2119978 C73.720836,79.2119978 71.8451901,80.8180317 70.2275182,80.8180317 C67.0193297,80.8180317 64.7363564,77.0648003 63.2660983,73.715017 C59.6505823,74.2523013 57.0960574,76.263723 57.0960574,80.0150148 C57.0960574,87.1180295 67.2908813,82.4279449 59.3790307,91.4066056 C55.2204115,95.9686729 48.3811898,99.5841889 43.9645965,103.335481 C46.111794,100.786775 49.8630858,93.4199669 49.8630858,90.2040198 C49.8630858,85.5139352 39.6682618,87.2538053 45.0372254,75.7264387 C44.0984327,74.7895856 42.3585626,73.715017 40.8786062,73.715017 C28.4124468,73.715017 43.1615795,85.2423836 29.0913259,85.2423836 C27.8809815,85.2423836 17.0189164,83.904022 11.5277545,82.8294534 C38.3357192,76.1279472 15.280986,71.8393711 30.831196,64.0691152 C30.1523169,61.2488576 28.6839985,57.8971347 24.4012414,57.8971347 C22.3898197,57.8971347 21.5751648,61.9219177 18.5008124,63.2602793 C13.2676246,65.5374337 6.03465304,51.3314042 1.740258,46.2398112 C5.35577397,47.8516641 9.92366028,51.3314042 14.3421932,51.3314042 C19.1680536,51.3314042 16.7609423,44.7656738 22.7835695,44.7656738 C23.9939139,44.7656738 26.5368009,45.8383027 28.1525331,46.375587 C29.2154638,44.7656738 30.6954202,42.087011 30.6954202,40.6109339 C30.6954202,38.465676 26.9441284,34.8482204 25.2023187,34.8482204 C22.1163284,34.8482204 18.6365882,38.7372277 18.6365882,29.6208516 C18.6365882,28.1467142 20.636372,17.2924077 21.7090009,11.2562029 C21.7090009,12.1949957 24.1296897,25.4680513 28.8197743,25.4680513 C29.8924032,25.4680513 31.9057646,23.8581381 33.5098588,23.8581381 C38.8671845,23.8581381 39.5441239,30.9592132 40.6186925,30.9592132 C44.4941222,30.9592132 47.1844229,27.4736541 47.1844229,24.1219311 C47.1844229,18.3592176 42.2227868,20.1049067 42.2227868,17.2924077 C42.2227868,12.3288318 59.7727806,2.01180963 60.3178235,1.47452534 C45.3087771,21.3094321 64.6005806,11.9273234 59.7727806,28.9477915 C61.3904524,30.1581359 63.7975636,31.4964975 65.2794596,31.4964975 C71.5736384,31.4964975 68.2277345,23.5865865 68.623424,22.5178369 C68.8949756,20.5064152 74.1165255,20.642191 75.9921714,20.642191 C77.4721277,20.642191 87.6553138,21.9805526 93.8272944,23.0551211 C89.001434,24.5234396 79.6212649,25.8695598 79.6212649,29.0855069 C79.6212649,31.0969286 80.9538075,33.5098588 80.9538075,35.6512374 C80.9538075,38.5995122 76.263723,40.4770977 73.9807497,42.3527436 C75.3268699,44.7656738 75.5964818,47.442397 79.7434631,47.442397 C83.7682462,47.442397 80.8180317,43.4273122 85.7796679,41.9512351 C92.2096225,40.2113651 97.1712587,53.3428259 103.071688,59.910496 C100.257249,58.434419 93.9630702,54.015886 89.6686751,54.015886" id="Fill-4"></path>
                        </g>
                    </g>
                </g>
            </g>
        </g>
    </g>
</svg>