<?xml version="1.0" encoding="UTF-8"?>
<svg width="88px" height="91px" viewBox="0 0 88 91" version="1.1" xmlns="http://www.w3.org/2000/svg" xmlns:xlink="http://www.w3.org/1999/xlink">
    <title>Fill 4</title>
    <g id="Page-1" stroke="none" stroke-width="1" fill="none" fill-rule="evenodd">
        <g id="New-Player-Page" transform="translate(-526.000000, -2830.000000)" fill="#231F20">
            <g id="Group-14" transform="translate(0.500000, 2400.925000)">
                <g id="Group-20" transform="translate(264.891250, 120.583342)">
                    <g id="Group-6" transform="translate(252.710938, 301.582109)">
                        <path d="M75.8686154,37.6624651 C68.3524542,37.6624651 60.4522415,46.1057811 60.4522415,53.6083646 C60.4522415,56.2928464 62.1940513,58.3062078 65.0065503,58.3062078 L80.4229241,58.3062078 C83.9046039,57.8969407 89.1377917,57.367415 89.1377917,51.4669861 C89.1377917,45.1669883 83.4972765,37.6624651 75.8686154,37.6624651 M56.9589238,62.4590081 C56.0220707,60.4475864 55.4906053,57.2316392 54.010649,54.9544848 L52.5423305,70.6346517 C52.5423305,71.3018929 53.207632,72.5102976 51.7393136,72.5102976 C51.3319861,72.5102976 51.0720724,72.3745218 50.9362966,72.238746 C50.5309088,68.0859457 49.9994435,60.8471552 49.9994435,59.9103021 L49.9994435,55.2202175 C49.7278919,54.9544848 49.4563402,54.818709 49.3186248,54.818709 C46.37035,58.0327165 44.7662557,65.007714 44.7662557,69.9615916 C44.7662557,71.9730133 44.6304799,75.5904689 45.8388846,77.0646063 C49.0606507,76.3993048 47.049229,75.8620205 51.3319861,75.8620205 C55.0832779,75.8620205 57.0966393,77.4661148 57.5039667,77.4661148 C59.108061,77.4661148 58.8365093,70.6346517 58.8365093,70.2331432 C58.8365093,63.7973696 59.3796126,68.3574973 56.9589238,62.4590081 M28.4130287,37.5266893 C20.9085055,37.5266893 15.5511798,45.4385399 15.5511798,51.3312103 C15.5511798,58.434225 23.1914789,58.1684923 27.8815634,58.1684923 L35.2503108,58.1684923 C37.927034,58.5700008 44.2347904,58.5700008 44.2347904,53.6083646 C44.2347904,46.3753931 36.1871639,37.5266893 28.4130287,37.5266893 M70.9069792,70.7646086 L70.9069792,81.6266737 C70.9069792,82.0281822 71.7080565,89.5307657 71.7080565,90.06805 C71.7080565,90.4695585 71.1668929,94.7581345 70.7712034,96.6337804 L64.8727141,97.8441248 C63.6623697,93.419773 63.7981455,93.2839971 63.7981455,92.3452044 C63.7981455,91.9436959 64.4653867,88.7296884 64.4653867,88.3281799 C64.4653867,87.7908956 63.5265939,84.8406812 62.8593527,83.1008111 L60.847931,83.1008111 C59.7733625,84.1695607 61.2552585,84.7049053 60.847931,88.7296884 C58.8365093,90.2038258 56.7009497,91.5421874 54.5537522,93.0182645 C54.4179764,93.0182645 54.2822006,92.7467128 53.8865111,92.7467128 L53.8865111,83.2307679 C53.3434078,82.1620183 51.6035378,82.8292595 50.9362966,82.6934836 L49.3186248,95.2954188 C46.1104363,95.6949877 46.2481517,95.2954188 44.7662557,95.2954188 C43.8274629,91.9436959 42.8906098,86.5805512 41.4203517,82.1620183 L40.3477228,82.1620183 C39.6688437,83.903828 38.7300509,86.8521029 38.7300509,87.2536113 C38.7300509,87.7908956 39.40893,90.871067 39.40893,91.4064116 C39.40893,91.8079201 38.8658268,94.8939104 38.7300509,96.6337804 C38.6078527,96.7695562 38.6078527,96.9053321 38.0628098,96.9053321 C32.1643205,96.9053321 31.2255277,93.9551176 31.6328552,89.265033 L32.7074238,73.1775387 C32.7074238,70.9003844 34.9768195,72.3745218 30.9675537,66.8833599 C30.5602262,66.2102998 28.2753133,66.3460756 26.8069948,65.9445672 C23.7210045,65.2715071 20.9085055,64.6003866 17.8225152,64.0689213 C8.84967359,62.3212926 8.57812196,54.4172006 8.57812196,49.1898317 C8.57812196,38.4654821 12.872517,26.2689347 24.6597973,16.6172139 C25.3386764,19.2958768 26.0039779,23.7221683 26.9427706,26.2689347 C27.3384601,26.9361758 29.4856577,26.806219 32.1643205,27.4734601 C34.8546213,28.1465202 37.5332841,29.4848818 40.3477228,30.4236746 C38.6078527,29.085313 32.7074238,25.8693658 30.5602262,23.0549272 C28.6826407,20.7719539 28.2753133,14.6057922 28.2753133,14.0685079 C28.2753133,11.9271294 37.7931978,8.84307876 40.211947,8.44157029 C43.8274629,7.90428599 45.567333,7.50277752 51.3319861,7.50277752 C59.5153884,7.50277752 69.2893074,8.5773461 78.4115024,16.0818693 C75.3255121,19.7032042 70.6354276,22.3818671 66.8841358,24.3952284 C71.1668929,24.7947973 80.9543894,19.1678596 81.495553,19.1678596 C82.9658111,19.1678596 88.5946885,27.3435032 89.6673174,29.2191491 C92.4798164,34.1749663 94.3574019,39.6738868 95.4319705,45.7042726 C95.4319705,50.6659088 95.5658067,50.7958656 95.5658067,51.2012534 C95.5658067,71.5734445 70.9069792,60.982931 70.9069792,70.7646086" id="Fill-4"></path>
                    </g>
                </g>
            </g>
        </g>
    </g>
</svg>