<?xml version="1.0" encoding="UTF-8"?>
<svg width="54px" height="85px" viewBox="0 0 54 85" version="1.1" xmlns="http://www.w3.org/2000/svg" xmlns:xlink="http://www.w3.org/1999/xlink">
    <title>Fill 4</title>
    <g id="Page-1" stroke="none" stroke-width="1" fill="none" fill-rule="evenodd">
        <g id="New-Player-Page" transform="translate(-615.000000, -2654.000000)" fill="#231F20">
            <g id="Group-14" transform="translate(0.500000, 2400.925000)">
                <g id="Group-20" transform="translate(264.891250, 120.583342)">
                    <g id="Group-28" transform="translate(0.000000, 121.800000)">
                        <g id="Group-25" transform="translate(324.649063, 0.000000)">
                            <g id="Group-6" transform="translate(0.000000, 0.000000)">
                                <path d="M65.9453217,53.0785521 C67.4136483,57.0955989 62.9950908,67.6861713 62.9950908,68.7588062 C62.9950908,71.3017073 65.0065237,73.4489168 67.6852014,73.4489168 C71.8457834,73.4489168 72.6468652,69.426051 72.6468652,66.8831498 C72.6468652,63.1318372 69.8324109,55.2199426 65.9453217,53.0785521 M52.2706815,95.2953667 C33.7798525,95.2953667 25.8679579,80.4161944 25.8679579,66.3458626 C25.8679579,49.1895233 42.6189072,25.5973746 59.9090834,11.125532 C57.7754516,20.7714874 58.0334271,17.9570331 58.0334271,23.3202076 C58.0334271,41.8149159 78.2757738,51.4666903 78.2757738,68.8887637 C78.2757738,83.9037126 66.7483431,95.2953667 52.2706815,95.2953667" id="Fill-4"></path>
                            </g>
                        </g>
                    </g>
                </g>
            </g>
        </g>
    </g>
</svg>